Genre: Horror | Thriller 
Language:English
IMDb:http://www.imdb.com/title/tt0872230/
Source:ELEKTRI4KA/Audio:Ink/Thx


General
Complete name
Format : AVI
Format/Info : Audio Video Interleave
File size : 1.37 GiB
Duration : 1h 42mn
Overall bit rate : 1 906 Kbps
Video #0
Codec ID : XVID
Codec ID/Hint : XviD
Duration : 1h 42mn
Bit rate : 1 448 Kbps
Width : 720 pixels
Height : 304 pixels
Display aspect ratio : 2.35:1
Frame rate : 25.000 fps
Resolution : 24 bits
Colorimetry : 4:2:0
Scan type : Progressive
Bits/(Pixel*Frame) : 0.265
Stream size : 1.04 GiB (76%)
Writing library : XviD 1.2.1 (UTC 2008-12-04)
Audio #1
ID : 1
Format : AC-3
Format/Info : Audio Coding 3
Codec ID : 2000
Duration : 1h 42mn
Bit rate mode : Constant
Bit rate : 448 Kbps
Channel(s) : 6 channels
Channel positions : Front: L C R, Surround: L R, LFE
Sampling rate : 48.0 KHz
Stream size : 329 MiB (24%)
Alignment : Split accross interleaves
Interleave, duration : 40 ms (1.00 video frame)
Interleave, preload duration : 500 ms


Plot:
A serial killer returns to his hometown to stalk seven children who share the same birthday as the date he was allegedly put to rest




================================== 
http://thepiratebay.org/user/hiest
==================================